<?xml version="1.0" encoding="UTF-8"?>
<svg version="1.1" xmlns="http://www.w3.org/2000/svg" width="145" height="190">
<path d="M0 0 C8.61533297 9.33875788 7.74394094 21.99554207 7.44921875 33.89453125 C7.42797943 34.92862625 7.40674011 35.96272125 7.38485718 37.02815247 C7.33891869 39.20218159 7.2900215 41.37615005 7.23828125 43.55004883 C7.16077131 46.82557024 7.09327744 50.10118039 7.02734375 53.37695312 C6.78308605 64.8287313 6.3906385 76.24029644 5.53515625 87.6640625 C4.26937744 87.88545898 4.26937744 87.88545898 2.97802734 88.11132812 C-10.86755957 90.65774638 -21.73616164 96.42218852 -30.31640625 107.63671875 C-32.46484375 109.6640625 -32.46484375 109.6640625 -34.96484375 109.71484375 C-37.88864769 108.4859324 -39.58433687 107.01199888 -41.83984375 104.7890625 C-47.84644029 99.26655022 -53.44559597 97.08945835 -61.55078125 96.53125 C-67.82419106 96.81716948 -73.19204656 99.31893763 -78.52734375 102.4765625 C-81.18637413 105.47869357 -81.87020448 107.69980073 -82.46484375 111.6640625 C-82.01354126 117.39560411 -79.79078951 122.80625516 -75.46484375 126.6640625 C-62.75934366 134.36110669 -49.41191658 136.80007671 -34.78125 133.9453125 C-25.60122656 131.26375088 -17.07123168 127.98833163 -11.5546875 119.828125 C-8.22849327 113.2234239 -9.50483371 105.73859806 -10.46484375 98.6640625 C-7.03027797 100.95377302 -6.59642107 102.37905674 -5.75390625 106.3203125 C-4.63061982 115.42804031 -7.51577041 122.24045249 -12.46484375 129.6640625 C-13.12484375 129.6640625 -13.78484375 129.6640625 -14.46484375 129.6640625 C-14.46484375 130.3240625 -14.46484375 130.9840625 -14.46484375 131.6640625 C-26.83737411 140.93700279 -41.14674247 143.05235351 -56.22265625 141.203125 C-68.38381235 139.11484567 -77.20790351 134.84851841 -84.46484375 124.6640625 C-87.84105392 118.70944525 -88.01186598 112.52276575 -86.30859375 106.0234375 C-83.25737459 97.49132466 -78.24115911 91.3115237 -70.46484375 86.6640625 C-68.9818768 86.07736682 -67.48183703 85.5311338 -65.96484375 85.0390625 C-64.23234375 84.3584375 -64.23234375 84.3584375 -62.46484375 83.6640625 C-61.31009763 81.22596095 -61.31009763 81.22596095 -61.46484375 78.6640625 C-61.46484375 77.6740625 -61.46484375 76.6840625 -61.46484375 75.6640625 C-63.01171875 76.1590625 -63.01171875 76.1590625 -64.58984375 76.6640625 C-69.53799841 78.03799679 -72.91659958 78.50011435 -77.58984375 75.9765625 C-83.03354422 71.59793386 -85.9427597 67.37072934 -86.72265625 60.33984375 C-87.00099492 54.28133877 -86.20215336 49.54566073 -82.46484375 44.6640625 C-76.53755158 38.88101859 -69.76980049 35.51555291 -61.46484375 35.4765625 C-60.13088539 35.52388197 -58.79704171 35.58080013 -57.46484375 35.6640625 C-57.37074219 34.91125 -57.27664062 34.1584375 -57.1796875 33.3828125 C-55.74136426 27.91246838 -50.53270557 24.91417897 -45.88671875 22.10546875 C-41.45543589 19.76378784 -38.50728422 18.55040201 -33.46484375 18.6640625 C-33.78859985 19.90265015 -33.78859985 19.90265015 -34.11889648 21.16625977 C-36.3476034 30.43455297 -36.78076474 39.10802249 -36.52734375 48.6015625 C-36.46370673 51.29830135 -36.41604892 53.99409473 -36.375 56.69140625 C-36.34543213 57.86437256 -36.31586426 59.03733887 -36.28540039 60.24584961 C-36.574759 65.75783579 -37.56363166 70.48740211 -41.65234375 74.3515625 C-42.20277344 74.89167969 -42.75320312 75.43179688 -43.3203125 75.98828125 C-46.20118978 78.23945858 -49.26089069 79.90284758 -52.46484375 81.6640625 C-51.86945801 81.77999756 -51.27407227 81.89593262 -50.66064453 82.01538086 C-47.96977979 82.54110048 -45.27981195 83.07127545 -42.58984375 83.6015625 C-41.65269531 83.78396484 -40.71554688 83.96636719 -39.75 84.15429688 C-38.85410156 84.33154297 -37.95820312 84.50878906 -37.03515625 84.69140625 C-35.79403076 84.93491821 -35.79403076 84.93491821 -34.52783203 85.18334961 C-32.46484375 85.6640625 -32.46484375 85.6640625 -30.46484375 86.6640625 C-30.46484375 63.5640625 -30.46484375 40.4640625 -30.46484375 16.6640625 C-33.76484375 17.3240625 -37.06484375 17.9840625 -40.46484375 18.6640625 C-48.81139184 19.18572176 -56.74380939 18.75172931 -63.40234375 13.2265625 C-64.08296875 12.3809375 -64.76359375 11.5353125 -65.46484375 10.6640625 C-66.04234375 9.9628125 -66.61984375 9.2615625 -67.21484375 8.5390625 C-70.00975689 4.34669279 -69.54415435 0.50200909 -69.46484375 -4.3359375 C-67.30411433 -3.87292405 -65.53409797 -3.37374608 -63.58618164 -2.31030273 C-57.57314499 0.45158348 -49.78728515 -1.6036402 -43.52734375 -2.7734375 C-41.94700587 -3.05171051 -40.36627686 -3.32777184 -38.78515625 -3.6015625 C-38.03782227 -3.73111328 -37.29048828 -3.86066406 -36.52050781 -3.99414062 C-25.00443867 -5.90892647 -9.73878561 -7.87391177 0 0 Z M-30.83984375 9.1640625 C-40.12056995 10.6776759 -49.08282431 10.99219012 -58.46484375 10.6640625 C-55.20654813 13.92235812 -52.15604591 13.80887721 -47.71508789 13.85327148 C-46.60121704 13.85242554 -46.60121704 13.85242554 -45.46484375 13.8515625 C-44.70099365 13.85293213 -43.93714355 13.85430176 -43.15014648 13.85571289 C-37.91189045 13.81095092 -33.0908821 13.1486591 -27.96484375 12.0546875 C-23.05511771 11.28754281 -17.74543014 11.2969238 -13.40524292 13.89872742 C-9.20010071 17.72447894 -9.57393304 24.5089879 -9.30169678 29.88705444 C-9.23464377 33.40215002 -9.23958676 36.91019619 -9.26953125 40.42578125 C-9.27236115 41.69758743 -9.27519104 42.96939362 -9.27810669 44.27973938 C-9.28733392 47.62193756 -9.30522649 50.96384963 -9.32751465 54.30596924 C-9.34816355 57.73194947 -9.35714865 61.15795954 -9.3671875 64.58398438 C-9.38912549 71.2774211 -9.42251032 77.97072533 -9.46484375 84.6640625 C-8.47484375 84.0040625 -7.48484375 83.3440625 -6.46484375 82.6640625 C-5.95312879 80.40246177 -5.95312879 80.40246177 -5.953125 77.71484375 C-5.91735352 76.65724854 -5.88158203 75.59965332 -5.84472656 74.51000977 C-5.82249023 73.34397217 -5.80025391 72.17793457 -5.77734375 70.9765625 C-5.74608398 69.76734131 -5.71482422 68.55812012 -5.68261719 67.31225586 C-5.6044821 63.87109217 -5.54467614 60.43068107 -5.49737549 56.98901367 C-5.46290921 54.5258065 -5.42259906 52.06272798 -5.38232422 49.59960938 C-5.31379656 45.18386324 -5.26735619 40.76830167 -5.23568726 36.35214233 C-5.22182679 34.60619005 -5.20347802 32.86026745 -5.18057251 31.1144104 C-5.15072726 28.64249886 -5.14105499 26.1712905 -5.13671875 23.69921875 C-5.12442734 22.96072693 -5.11213593 22.22223511 -5.09947205 21.46136475 C-5.12363914 15.79230248 -6.49979416 12.62911209 -10.46484375 8.6640625 C-16.97894749 6.25143148 -24.22314585 8.02243099 -30.83984375 9.1640625 Z M-25.46484375 15.6640625 C-25.46484375 22.2640625 -25.46484375 28.8640625 -25.46484375 35.6640625 C-17.12334993 37.56759424 -17.12334993 37.56759424 -13.46484375 34.6640625 C-13.16083619 31.925014 -13.04654776 29.46142617 -13.08984375 26.7265625 C-13.07824219 25.99759766 -13.06664063 25.26863281 -13.0546875 24.51757812 C-13.07940602 20.02292663 -13.15399637 18.97490988 -16.46484375 15.6640625 C-19.43484375 15.6640625 -22.40484375 15.6640625 -25.46484375 15.6640625 Z M-50.46484375 30.6640625 C-56.88830589 45.30358086 -55.61062164 60.99630301 -55.46484375 76.6640625 C-54.80484375 76.6640625 -54.14484375 76.6640625 -53.46484375 76.6640625 C-50.66749782 71.09216625 -50.00155599 66.64109612 -49.953125 60.44921875 C-49.9261982 59.16560707 -49.9261982 59.16560707 -49.89872742 57.85606384 C-49.84492344 55.14627889 -49.81082562 52.436667 -49.77734375 49.7265625 C-49.74414419 47.87953336 -49.70965211 46.03252698 -49.67382812 44.18554688 C-49.58921453 39.67851092 -49.52226162 35.17152362 -49.46484375 30.6640625 C-49.79484375 30.6640625 -50.12484375 30.6640625 -50.46484375 30.6640625 Z M-21.3359375 40.4453125 C-23.46484375 40.6640625 -23.46484375 40.6640625 -25.46484375 40.6640625 C-26.78770621 45.62479672 -26.55377572 50.57517762 -26.46484375 55.6640625 C-25.43359375 55.4990625 -24.40234375 55.3340625 -23.33984375 55.1640625 C-19.98240049 54.73084402 -16.84148218 54.58170547 -13.46484375 54.6640625 C-12.38624513 47.12358346 -12.38624513 47.12358346 -13.46484375 39.6640625 C-16.087038 39.6640625 -18.73395416 40.14460175 -21.3359375 40.4453125 Z M-76.46484375 46.6640625 C-74.12277927 47.83509474 -72.81325406 47.73476754 -70.21484375 47.6640625 C-66.5156594 47.61625398 -63.10219314 47.91793955 -59.46484375 48.6640625 C-59.46484375 47.3440625 -59.46484375 46.0240625 -59.46484375 44.6640625 C-64.82996178 41.98150349 -71.88405333 42.99943016 -76.46484375 46.6640625 Z M-80.33984375 54.9140625 C-82.19558327 57.80076842 -82.34974243 60.2685736 -82.46484375 63.6640625 C-80.9208081 67.80857925 -79.02117889 70.99681114 -75.46484375 73.6640625 C-71.26400238 74.83096288 -69.23173845 75.00326592 -65.21484375 73.2265625 C-64.30734375 72.7109375 -63.39984375 72.1953125 -62.46484375 71.6640625 C-61.47484375 71.6640625 -60.48484375 71.6640625 -59.46484375 71.6640625 C-60.41208502 69.29595932 -61.11775509 67.91198297 -63.21484375 66.4140625 C-66.17359385 65.42781247 -68.36725262 65.26862533 -71.46484375 65.6640625 C-73.37741087 67.54484123 -73.37741087 67.54484123 -74.46484375 69.6640625 C-77.43223835 65.58389493 -78.02217466 62.6800407 -77.46484375 57.6640625 C-76.46484375 55.7890625 -76.46484375 55.7890625 -74.46484375 54.6640625 C-72.45225575 54.34460409 -70.43578747 54.03080052 -68.40625 53.84765625 C-66.35386866 53.65356787 -64.44305994 53.24104222 -62.46484375 52.6640625 C-69.28281542 49.63385287 -74.16399273 50.79682849 -80.33984375 54.9140625 Z M-25.46484375 59.6640625 C-25.53892962 63.75740155 -25.59341415 67.85048183 -25.62963867 71.94433594 C-25.64473733 73.33730872 -25.66521819 74.73023388 -25.69116211 76.12304688 C-25.72749497 78.12349135 -25.74295567 80.12428077 -25.7578125 82.125 C-25.77352295 83.32946777 -25.7892334 84.53393555 -25.80541992 85.77490234 C-25.69302979 86.7283252 -25.58063965 87.68174805 -25.46484375 88.6640625 C-22.22743633 90.82233412 -21.22251072 91.39726581 -17.46484375 90.6640625 C-12.81354676 85.90262551 -13.0412148 81.34447864 -13.11328125 74.89453125 C-13.14679688 73.70472656 -13.1803125 72.51492187 -13.21484375 71.2890625 C-13.24191406 69.46955078 -13.24191406 69.46955078 -13.26953125 67.61328125 C-13.31652159 64.6293946 -13.38221003 61.64713971 -13.46484375 58.6640625 C-18.29297816 57.71736948 -21.0024367 57.64480404 -25.46484375 59.6640625 Z M-70.46484375 59.6640625 C-71.45484375 61.1490625 -71.45484375 61.1490625 -72.46484375 62.6640625 C-68.50484375 62.9940625 -64.54484375 63.3240625 -60.46484375 63.6640625 C-60.79484375 63.0040625 -61.12484375 62.3440625 -61.46484375 61.6640625 C-63.5833066 60.97676996 -63.5833066 60.97676996 -66.02734375 60.5390625 C-67.26677734 60.28769531 -67.26677734 60.28769531 -68.53125 60.03125 C-69.16933594 59.91007812 -69.80742188 59.78890625 -70.46484375 59.6640625 Z M-64.46484375 90.6640625 C-61.4054496 92.39297594 -58.80932269 93.0163255 -55.33984375 93.4765625 C-49.08091067 94.53370133 -42.37934561 96.62812307 -37.87109375 101.32421875 C-36.4265714 103.00896541 -36.4265714 103.00896541 -33.46484375 102.6640625 C-33.56148438 100.74948563 -33.56148438 100.74948563 -34.46484375 98.6640625 C-42.91292258 92.79773951 -54.23478157 88.47621734 -64.46484375 90.6640625 Z " fill="#D6D6D6" transform="translate(105.46484375,31.3359375)"/>
<path d="M0 0 C0.66 0.33 1.32 0.66 2 1 C4.23275116 8.42941282 4.20076947 15.4380037 4.01171875 23.14453125 C3.98906448 24.39070724 3.96641022 25.63688324 3.94306946 26.92082214 C3.88063223 30.21581943 3.80847825 33.5104186 3.73205566 36.80511475 C3.65835134 40.12574676 3.60102331 43.44667478 3.54101562 46.76757812 C3.49050011 49.3307474 3.43909673 51.89389936 3.38671875 54.45703125 C3.36373215 55.63554153 3.34074554 56.81405182 3.31706238 58.02827454 C3.14539313 65.38418574 2.69928588 72.67536398 2 80 C-4.62043632 81.69631174 -11.2220526 83.31250246 -17.94140625 84.5703125 C-20.1834201 84.99685309 -20.1834201 84.99685309 -23 86 C-23.34242218 87.33102815 -23.67478863 88.66466242 -24 90 C-25.453125 91.4921875 -25.453125 91.4921875 -27.25 92.875 C-30.66491487 95.63509614 -33.29029207 98.55128082 -36 102 C-37.65 101.67 -39.3 101.34 -41 101 C-35.96805158 89.57105333 -26.11501252 83.38716835 -15 79 C-10.11931381 77.3439553 -6.13170571 76.9201811 -1 77 C-0.85439191 69.73077345 -0.71243019 62.46148159 -0.57275391 55.19213867 C-0.52504892 52.73020902 -0.47657343 50.26829416 -0.42724609 47.80639648 C-0.10855827 31.86875363 0.07619313 15.94092184 0 0 Z " fill="#D6D6D6" transform="translate(114,44)"/>
<path d="M0 0 C0.66 0 1.32 0 2 0 C4.77426497 7.18045051 4.84054091 14.67143147 1.80078125 21.8203125 C-3.49865775 31.13953594 -11.16088535 36.19411763 -21.1171875 39.7578125 C-33.17887914 42.98943554 -47.5399867 41.85317289 -59 37 C-56.4882449 36.13054631 -54.97953972 36.00349978 -52.328125 36.45703125 C-37.49850964 38.87641685 -22.43213302 36.77674322 -10 28 C-4.86924288 23.40491736 -0.94941754 19.00195437 0 12 C0.13120319 7.99325634 0.11842665 4.00676827 0 0 Z " fill="#D6D6D6" transform="translate(101,137)"/>
<path d="M0 0 C0.33 0 0.66 0 1 0 C1.15266725 6.97399713 1.25743166 13.94756032 1.32958984 20.92285156 C1.35968354 23.29345809 1.40056904 25.66395399 1.45263672 28.03417969 C1.52577458 31.45014799 1.55953203 34.86463907 1.5859375 38.28125 C1.61690521 39.33364868 1.64787292 40.38604736 1.67977905 41.47033691 C1.68265736 47.82435185 0.70160163 51.59078159 -3.31747437 56.56433105 C-5.24338124 58.20767285 -6.50657687 58.66536622 -9 59 C-11.75 58.5625 -11.75 58.5625 -14 58 C-12.948125 56.9790625 -12.948125 56.9790625 -11.875 55.9375 C-9.77255579 53.82304183 -7.73527489 51.66254239 -5.75 49.4375 C-5.24984375 48.87933594 -4.7496875 48.32117188 -4.234375 47.74609375 C-1.56140838 43.96503021 -1.89300652 39.89413332 -1.9375 35.3984375 C-1.94523437 34.10292969 -1.95296875 32.80742188 -1.9609375 31.47265625 C-1.97947162 29.43243937 -1.99982516 27.39224691 -2.02050781 25.35205078 C-2.21419816 4.42839632 -2.21419816 4.42839632 0 0 Z " fill="#D6D6D6" transform="translate(72,55)"/>
<path d="M0 0 C0 0.33 0 0.66 0 1 C-1.258125 0.9175 -2.51625 0.835 -3.8125 0.75 C-10.70499223 0.76088861 -18.12695691 2.71834734 -23.125 7.6875 C-23.74375 8.450625 -24.3625 9.21375 -25 10 C-25.33 10.33 -25.66 10.66 -26 11 C-26.23075082 12.34747084 -26.41153063 13.70377565 -26.5625 15.0625 C-26.706875 16.361875 -26.85125 17.66125 -27 19 C-27.66 19 -28.32 19 -29 19 C-30.25435674 15.23692979 -30.74981881 11.89191668 -30 8 C-23.82429146 -2.79146302 -10.92899886 -5.10834025 0 0 Z " fill="#D6D6D6" transform="translate(55,132)"/>
<path d="M0 0 C2.64 0 5.28 0 8 0 C8 0.99 8 1.98 8 3 C6.02 3.99 6.02 3.99 4 5 C3.67 12.26 3.34 19.52 3 27 C2.01 27 1.02 27 0 27 C0 18.09 0 9.18 0 0 Z " fill="#D6D6D6" transform="translate(82,92)"/>
<path d="M0 0 C2.31 0.33 4.62 0.66 7 1 C7 1.66 7 2.32 7 3 C5.68 3 4.36 3 3 3 C3 7.62 3 12.24 3 17 C2.01 16.67 1.02 16.34 0 16 C0 10.72 0 5.44 0 0 Z " fill="#D6D6D6" transform="translate(82,49)"/>
<path d="M0 0 C0.33 1.32 0.66 2.64 1 4 C-0.65 3.67 -2.3 3.34 -4 3 C-4 4.65 -4 6.3 -4 8 C-5.32 8.33 -6.64 8.66 -8 9 C-7.67 6.36 -7.34 3.72 -7 1 C-3.535 0.505 -3.535 0.505 0 0 Z " fill="#D6D6D6" transform="translate(89,74)"/>
<path d="M0 0 C1.65 0.33 3.3 0.66 5 1 C5 1.66 5 2.32 5 3 C2.69 3.66 0.38 4.32 -2 5 C-1.34 3.35 -0.68 1.7 0 0 Z " fill="#D6D6D6" transform="translate(36,99)"/>
<path d="M0 0 C2.64 0 5.28 0 8 0 C8 0.99 8 1.98 8 3 C5.6568787 2.74438677 3.32156597 2.40729228 1 2 C0.67 1.34 0.34 0.68 0 0 Z " fill="#D6D6D6" transform="translate(33,111)"/>
<path d="M0 0 C1.32 0.33 2.64 0.66 4 1 C3.67 1.66 3.34 2.32 3 3 C2.01 2.01 1.02 1.02 0 0 Z " fill="#D7D7D7" transform="translate(52,51)"/>
</svg>
