<?xml version="1.0" encoding="UTF-8"?>
<svg version="1.1" xmlns="http://www.w3.org/2000/svg" width="80" height="116">
<path d="M0 0 C0.66 0 1.32 0 2 0 C2 0.66 2 1.32 2 2 C7.03535438 2.16784515 11.55332943 1.97020334 16.5 1 C21.62538673 0.09203675 26.61922962 -0.28483906 31.8125 -0.375 C32.51761719 -0.40078125 33.22273438 -0.4265625 33.94921875 -0.453125 C39.13105485 -0.4726791 43.04423179 0.53618642 47 4 C52.88812587 10.57375957 51.47397184 20.28188607 51.3125 28.5 C51.30097992 29.9661331 51.29120331 31.43228097 51.28320312 32.8984375 C51.20086263 42.62354008 50.69851551 52.3012229 50 62 C49.32477295 62.17861572 48.6495459 62.35723145 47.95385742 62.54125977 C38.22866477 65.16939503 31.03616451 68.78608202 25 77 C21.60407563 76.3922283 19.61353517 75.14495305 16.9375 73 C12.22576637 69.237848 8.5085322 68.66364545 2.58203125 68.70703125 C-1.43608189 69.16294424 -3.74040631 70.64199606 -7 73 C-8.53214888 76.06429776 -8.22938548 78.6165642 -8 82 C-6.55439823 86.33680531 -4.01702051 87.72290599 -0.125 89.75 C8.5309351 93.93237843 17.78518169 94.38230226 26.875 91.25 C32.19143253 89.10370841 35.78437059 86.82344411 39 82 C39.24219315 79.02550392 39.24219315 79.02550392 39.125 75.8125 C39.10695312 74.72582031 39.08890625 73.63914062 39.0703125 72.51953125 C39.04710937 71.68808594 39.02390625 70.85664062 39 70 C39.66 70 40.32 70 41 70 C43.17467322 74.34934645 42.79524861 80.55063429 41.31640625 85.10546875 C38.28881056 90.79634363 33.87572129 94.46875218 28 96.8125 C18.49700018 99.61220533 7.05806914 99.07969728 -2 95 C-6.34665075 92.0548062 -10.03446084 88.96607236 -12 84 C-13.0358055 77.59245899 -11.76449177 72.25483309 -8 67 C-4.82795596 63.46697274 -2.20537868 61.30682366 2.4375 60.125 C3.283125 60.08375 4.12875 60.0425 5 60 C4.67 59.01 4.34 58.02 4 57 C4.33 56.01 4.66 55.02 5 54 C4.01 54.495 4.01 54.495 3 55 C-4.08419743 55.6968063 -4.08419743 55.6968063 -7.875 52.8125 C-11.06076458 48.59604688 -12.2291846 45.8393395 -11.9375 40.5625 C-11.23162359 35.629573 -9.63154544 33.38944241 -6 30 C-1.18669255 26.79112837 2.40411686 26.71055777 8 27 C8.04125 26.443125 8.0825 25.88625 8.125 25.3125 C9.63200721 21.32969523 13.25984712 18.87007644 17 17 C15.89591797 16.76216797 15.89591797 16.76216797 14.76953125 16.51953125 C8.71081682 15.07088223 4.84530045 13.99889059 1 9 C-0.4783226 6.04335481 -0.06032783 3.25770263 0 0 Z M9 11 C9 11.33 9 11.66 9 12 C13.52758357 12.84892192 17.0784241 12.94618763 21.6796875 12.26953125 C24.56278002 11.93462656 27.41076556 11.81642525 30.3125 11.75 C31.31925781 11.72421875 32.32601562 11.6984375 33.36328125 11.671875 C36 12 36 12 37.63777161 13.2467804 C39.34146029 15.43946734 39.39288208 16.62316934 39.43237305 19.37963867 C39.46206429 20.70066841 39.46206429 20.70066841 39.49235535 22.04838562 C39.49874527 22.99534805 39.50513519 23.94231049 39.51171875 24.91796875 C39.53864555 26.37654045 39.53864555 26.37654045 39.56611633 27.86457825 C39.62032467 30.97217464 39.65414898 34.07961652 39.6875 37.1875 C39.72066376 39.29364134 39.75515253 41.39976227 39.79101562 43.50585938 C39.87605731 48.67046161 39.94281841 53.83501719 40 59 C40.99 58.505 40.99 58.505 42 58 C42.19267565 52.1104461 42.37133271 46.22069481 42.53710938 40.33032227 C42.59544578 38.32727712 42.65758649 36.32433896 42.72363281 34.3215332 C42.81799821 31.43981406 42.89859769 28.55798504 42.9765625 25.67578125 C43.00875885 24.78288895 43.0409552 23.88999664 43.0741272 22.970047 C43.18059582 18.5338456 43.22292057 14.98670735 41 11 C39.17921851 8.76156749 39.17921851 8.76156749 36.55859375 8.734375 C27.25881552 8.78093209 18.20239942 9.76566619 9 11 Z M29 14 C29 18.29 29 22.58 29 27 C31.97 27.495 31.97 27.495 35 28 C37.22052862 26.19400239 37.22052862 26.19400239 37.265625 23.6875 C37.26046875 22.800625 37.2553125 21.91375 37.25 21 C37.25515625 20.113125 37.2603125 19.22625 37.265625 18.3125 C37.22052862 15.80599761 37.22052862 15.80599761 35 14 C33.02 14 31.04 14 29 14 Z M20 16 C20.99 16.33 21.98 16.66 23 17 C22.66871094 18.26457031 22.33742188 19.52914063 21.99609375 20.83203125 C20.61035163 27.05873001 20.92835442 33.11112834 21.16601562 39.44726562 C21.27778677 44.75446816 21.07468638 48.44147426 18 53 C15 55.25 15 55.25 12 57 C11.01 57.66 10.02 58.32 9 59 C14.61 59.66 20.22 60.32 26 61 C26 45.49 26 29.98 26 14 C23.53721199 14 22.14775881 14.85452863 20 16 Z M12 25 C10.31841854 28.66864051 9.75971129 31.49416047 9.8046875 35.51953125 C9.81113281 36.54111328 9.81757813 37.56269531 9.82421875 38.61523438 C9.84097656 39.67033203 9.85773437 40.72542969 9.875 41.8125 C9.88402344 42.88693359 9.89304687 43.96136719 9.90234375 45.06835938 C9.92584694 47.71246854 9.95870425 50.35611872 10 53 C12.67848546 50.32151454 12.30504006 48.86029139 12.4140625 45.1171875 C12.45273437 43.95058594 12.49140625 42.78398438 12.53125 41.58203125 C12.5621875 40.35871094 12.593125 39.13539062 12.625 37.875 C12.66367187 36.64394531 12.70234375 35.41289063 12.7421875 34.14453125 C12.8366999 31.09650624 12.92225494 28.04849138 13 25 C12.67 25 12.34 25 12 25 Z M29 31 C29 33.97 29 36.94 29 40 C31.64 40 34.28 40 37 40 C37 36.7 37 33.4 37 30 C34.34223434 30 31.62576483 30.61807057 29 31 Z M-5 34 C-2.24921116 34.91692961 -0.64051087 35.10886083 2.1875 35.0625 C3.445625 35.041875 4.70375 35.02125 6 35 C6 34.34 6 33.68 6 33 C1.58937864 31.9742741 -0.92630576 31.96315288 -5 34 Z M-4 38 C-4 38.33 -4 38.66 -4 39 C-1.69 39 0.62 39 3 39 C3 38.67 3 38.34 3 38 C0.69 38 -1.62 38 -4 38 Z M-6 39 C-7.89921719 41.10757373 -7.89921719 41.10757373 -9 44 C-8.38352349 47.08238255 -7.44689233 49.27085988 -5.8125 51.9375 C-2.82413491 53.68930022 -0.25834688 52.71091205 3 52 C3.66 51.67 4.32 51.34 5 51 C4.34 49.68 3.68 48.36 3 47 C-0.93075644 47.57452746 -0.93075644 47.57452746 -4 50 C-5.49297212 47.01405576 -5.11755228 44.29146376 -5 41 C-4.67 40.34 -4.34 39.68 -4 39 C-4.66 39 -5.32 39 -6 39 Z M29 44 C28.55348528 45.89539635 28.55348528 45.89539635 28.63671875 48.0625 C28.63736328 48.85914063 28.63800781 49.65578125 28.63867188 50.4765625 C28.65478516 51.30929688 28.67089844 52.14203125 28.6875 53 C28.68427734 53.83273438 28.68105469 54.66546875 28.67773438 55.5234375 C28.47032862 60.26771673 28.47032862 60.26771673 31 64 C33.0480428 63.9049261 33.0480428 63.9049261 35 63 C37.03120707 59.95318939 37.24659875 59.39881676 37.1953125 55.98828125 C37.18886719 55.23095703 37.18242188 54.47363281 37.17578125 53.69335938 C37.15902344 52.90767578 37.14226563 52.12199219 37.125 51.3125 C37.11597656 50.51521484 37.10695313 49.71792969 37.09765625 48.89648438 C37.07411585 46.930861 37.03824547 44.96539225 37 43 C32.82189931 41.81068813 32.82189931 41.81068813 29 44 Z M-2 44 C-2 44.33 -2 44.66 -2 45 C-0.35 45 1.3 45 3 45 C3 44.67 3 44.34 3 44 C1.35 44 -0.3 44 -2 44 Z M3 64 C3 64.33 3 64.66 3 65 C6.63 65.33 10.26 65.66 14 66 C10.91111478 63.94074319 10.29064073 63.7609626 6.8125 63.875 C5.554375 63.91625 4.29625 63.9575 3 64 Z M17 67 C18.65 68.65 20.3 70.3 22 72 C22.66 71.34 23.32 70.68 24 70 C20.74602492 67.74114676 20.74602492 67.74114676 17 67 Z " fill="#000000" transform="translate(15,9)"/>
<path d="M0 0 C3.15300657 3.15300657 2.96413416 7.0488829 3.04275513 11.32589722 C3.02043134 13.98845406 2.95658388 16.64708231 2.87890625 19.30859375 C2.85529526 20.27531509 2.83168427 21.24203644 2.80735779 22.23805237 C2.73120903 25.30470274 2.64697668 28.37106887 2.5625 31.4375 C2.5092304 33.52537704 2.45649039 35.61326766 2.40429688 37.70117188 C2.27566045 42.80095888 2.13977727 47.90050668 2 53 C-2.95993432 54.44584325 -7.75723329 55.50716681 -12.86328125 56.2421875 C-15.14206486 56.79318927 -15.14206486 56.79318927 -16.08203125 58.83203125 C-16.38496094 59.54746094 -16.68789063 60.26289062 -17 61 C-18.5859375 62.95703125 -18.5859375 62.95703125 -20.375 64.8125 C-21.25285156 65.75029297 -21.25285156 65.75029297 -22.1484375 66.70703125 C-24 68 -24 68 -26.2265625 67.69921875 C-26.81179687 67.46847656 -27.39703125 67.23773438 -28 67 C-23.92329046 60.47063594 -19.21447461 55.90056982 -12 53 C-8.37 52.34 -4.74 51.68 -1 51 C-0.67 34.17 -0.34 17.34 0 0 Z " fill="#000000" transform="translate(67,21)"/>
<path d="M0 0 C0.66 0 1.32 0 2 0 C3.63330575 4.89991726 3.43197251 8.74727973 1.75 13.625 C-2.24087274 21.32168314 -6.96409112 24.32136371 -15 27 C-18.14195165 27.22580761 -21.28824987 27.18514806 -24.4375 27.1875 C-25.29666016 27.19974609 -26.15582031 27.21199219 -27.04101562 27.22460938 C-28.2872168 27.22750977 -28.2872168 27.22750977 -29.55859375 27.23046875 C-30.31454834 27.23457764 -31.07050293 27.23868652 -31.84936523 27.24291992 C-34.27104102 26.9693852 -35.89775389 26.20294367 -38 25 C-34.97727632 23.99242544 -32.70231427 24.00103697 -29.55419922 24.11645508 C-20.30353534 24.42694449 -12.97752202 23.34080686 -5.5 17.4375 C-2.17884659 14.19937543 -0.78453924 12.05043601 -0.375 7.5 C-0.30023438 6.7265625 -0.22546875 5.953125 -0.1484375 5.15625 C-0.03034822 3.44084781 0 1.71946205 0 0 Z " fill="#000000" transform="translate(58,83)"/>
<path d="M0 0 C0.33 0 0.66 0 1 0 C1.07436755 4.6081187 1.12870394 9.21588514 1.16479492 13.82446289 C1.17984622 15.39093107 1.20029207 16.95735736 1.22631836 18.52368164 C1.26286433 20.78021606 1.27976261 23.03619153 1.29296875 25.29296875 C1.30845261 25.98899704 1.32393646 26.68502533 1.33988953 27.40214539 C1.34138449 31.75856439 0.80546627 34.60967822 -2 38 C-5.6875 38.8125 -5.6875 38.8125 -9 39 C-9 38.34 -9 37.68 -9 37 C-7.824375 36.071875 -7.824375 36.071875 -6.625 35.125 C-3.97332184 32.9784034 -3.1729612 32.10046858 -2 29 C-1.65004547 25.9194155 -1.65004547 25.9194155 -1.62109375 22.51953125 C-1.58693359 21.27365234 -1.55277344 20.02777344 -1.51757812 18.74414062 C-1.47793945 16.79797852 -1.47793945 16.79797852 -1.4375 14.8125 C-1.37786663 12.23557724 -1.31428899 9.65874164 -1.24609375 7.08203125 C-1.22216553 5.93968018 -1.1982373 4.7973291 -1.17358398 3.62036133 C-1 1 -1 1 0 0 Z " fill="#000000" transform="translate(39,28)"/>
<path d="M0 0 C0.66 0.66 1.32 1.32 2 2 C1.02160156 2.14695312 1.02160156 2.14695312 0.0234375 2.296875 C-5.46211123 3.23540546 -9.74349054 4.16914148 -14 8 C-15.42779274 11.10935018 -15.42779274 11.10935018 -16 14 C-16.66 13.67 -17.32 13.34 -18 13 C-18.34338883 9.3085701 -18.27811415 7.45322305 -16.3125 4.25 C-11.65217728 -0.28436805 -6.30046647 -0.84171261 0 0 Z " fill="#000000" transform="translate(25,78)"/>
<path d="M0 0 C0 0.66 0 1.32 0 2 C-0.99 2 -1.98 2 -3 2 C-3 7.28 -3 12.56 -3 18 C-3.99 17.67 -4.98 17.34 -6 17 C-6 11.39 -6 5.78 -6 0 C-3 -1 -3 -1 0 0 Z " fill="#000000" transform="translate(51,53)"/>
<path d="M0 0 C1.65 0 3.3 0 5 0 C5 0.66 5 1.32 5 2 C4.34 2 3.68 2 3 2 C3 4.97 3 7.94 3 11 C2.01 11 1.02 11 0 11 C0 7.37 0 3.74 0 0 Z " fill="#000000" transform="translate(45,24)"/>
<path d="M0 0 C1.98 0 3.96 0 6 0 C5.67 0.99 5.34 1.98 5 3 C4.34 2.67 3.68 2.34 3 2 C2.67 3.32 2.34 4.64 2 6 C1.34 6 0.68 6 0 6 C0 4.02 0 2.04 0 0 Z " fill="#000000" transform="translate(45,41)"/>
<path d="M0 0 C1.32 0 2.64 0 4 0 C4 0.66 4 1.32 4 2 C2.68 2.33 1.36 2.66 0 3 C0 2.01 0 1.02 0 0 Z " fill="#000000" transform="translate(14,58)"/>
<path d="M0 0 C1.65 0 3.3 0 5 0 C5 0.66 5 1.32 5 2 C3.35 1.67 1.7 1.34 0 1 C0 0.67 0 0.34 0 0 Z " fill="#000000" transform="translate(13,66)"/>
<path d="M0 0 C2 1 2 1 2 1 Z " fill="#000000" transform="translate(26,26)"/>
<path d="" fill="#000000" transform="translate(0,0)"/>
</svg>
